<svg width="18" height="16" viewBox="0 0 18 16" fill="none" xmlns="http://www.w3.org/2000/svg">
<path d="M14.3652 1.53846H3.59869C3.07314 1.53995 2.56955 1.74939 2.19793 2.12101C1.82632 2.49262 1.61688 2.99622 1.61539 3.52176V10.3217C1.61688 10.8472 1.82632 11.3508 2.19793 11.7224C2.56955 12.094 3.07314 12.3035 3.59869 12.305H5.01533V15.1382L8.33453 12.3708C8.3855 12.3283 8.44981 12.3049 8.51622 12.305H14.3652C14.8907 12.3035 15.3943 12.094 15.7659 11.7224C16.1376 11.3508 16.347 10.8472 16.3485 10.3217V3.52176C16.347 2.99622 16.1376 2.49262 15.7659 2.12101C15.3943 1.74939 14.8907 1.53995 14.3652 1.53846Z" stroke="#9C9C9C" stroke-width="1.5" stroke-linejoin="round"/>
<path d="M5.58284 8.05449C6.20875 8.05449 6.71616 7.54709 6.71616 6.92117C6.71616 6.29526 6.20875 5.78786 5.58284 5.78786C4.95693 5.78786 4.44952 6.29526 4.44952 6.92117C4.44952 7.54709 4.95693 8.05449 5.58284 8.05449Z" fill="#9C9C9C"/>
<path d="M8.98308 8.05449C9.60899 8.05449 10.1164 7.54709 10.1164 6.92117C10.1164 6.29526 9.60899 5.78786 8.98308 5.78786C8.35716 5.78786 7.84976 6.29526 7.84976 6.92117C7.84976 7.54709 8.35716 8.05449 8.98308 8.05449Z" fill="#9C9C9C"/>
<path d="M12.3816 8.0545C13.0075 8.0545 13.5149 7.5471 13.5149 6.92119C13.5149 6.29527 13.0075 5.78787 12.3816 5.78787C11.7557 5.78787 11.2483 6.29527 11.2483 6.92119C11.2483 7.5471 11.7557 8.0545 12.3816 8.0545Z" fill="#9C9C9C"/>
</svg>
