<svg width="13" height="18" viewBox="0 0 13 18" fill="none" xmlns="http://www.w3.org/2000/svg">
<path d="M0.849731 11.2983C0.849731 7.8163 5.49238 5.12057 4.44404 1.11441C6.91512 1.11441 11.6327 4.70872 11.6327 11.2983C11.6327 12.7282 11.0646 14.0995 10.0535 15.1106C9.04243 16.1217 7.6711 16.6897 6.24119 16.6897C4.81129 16.6897 3.43995 16.1217 2.42885 15.1106C1.41776 14.0995 0.849731 12.7282 0.849731 11.2983Z" stroke="#9C9C9C" stroke-width="1.5" stroke-linecap="round" stroke-linejoin="round"/>
<path d="M8.63823 13.0953C8.63823 15.256 7.44013 16.0906 6.24203 16.0906C5.04393 16.0906 3.84583 15.256 3.84583 13.0953C3.84583 10.9346 5.34345 9.8754 5.04393 8.30289C6.61644 8.30289 8.63823 10.9346 8.63823 13.0953Z" stroke="#9C9C9C" stroke-width="1.38462" stroke-linecap="round" stroke-linejoin="round"/>
</svg>
