<svg width="14" height="17" viewBox="0 0 14 17" fill="none" xmlns="http://www.w3.org/2000/svg">
<path d="M3.30469 3.4615V2.99993C3.30575 2.63301 3.45198 2.28143 3.71143 2.02198C3.97088 1.76253 4.32247 1.6163 4.68938 1.61523H11.1513C11.5182 1.6163 11.8698 1.76253 12.1293 2.02198C12.3887 2.28143 12.5349 2.63301 12.536 2.99993V13.6159L10.2282 11.7697" stroke="#9C9C9C" stroke-width="1.5" stroke-linejoin="round"/>
<path d="M8.84599 3.92336H2.84563C2.47872 3.92443 2.12713 4.07066 1.86768 4.33011C1.60823 4.58956 1.462 4.94114 1.46094 5.30806V15.4625L5.84581 11.77L10.2307 15.4625V5.30806C10.2296 4.94114 10.0834 4.58956 9.82394 4.33011C9.56449 4.07066 9.2129 3.92443 8.84599 3.92336Z" stroke="#9C9C9C" stroke-width="1.5" stroke-linejoin="round"/>
</svg>
