<svg width="15" height="15" viewBox="0 0 15 15" fill="none" xmlns="http://www.w3.org/2000/svg">
<path d="M6.51966 0.999756C5.49481 0.999756 4.49296 1.30366 3.64083 1.87304C2.78869 2.44242 2.12453 3.2517 1.73233 4.19855C1.34014 5.14539 1.23752 6.18727 1.43746 7.19244C1.6374 8.1976 2.13091 9.12091 2.8556 9.84559C3.58028 10.5703 4.50359 11.0638 5.50875 11.2637C6.51392 11.4637 7.5558 11.3611 8.50264 10.9689C9.44949 10.5767 10.2588 9.9125 10.8281 9.06036C11.3975 8.20823 11.7014 7.20638 11.7014 6.18153C11.7013 4.80726 11.1554 3.48931 10.1836 2.51756C9.21188 1.54581 7.89393 0.999843 6.51966 0.999756Z" stroke="#A8A8A8" stroke-width="1.5" stroke-miterlimit="10"/>
<path d="M10.3887 10.0476L14.0076 13.6665" stroke="#A8A8A8" stroke-width="1.5" stroke-miterlimit="10" stroke-linecap="round"/>
</svg>
