<svg width="13" height="16" viewBox="0 0 13 16" fill="none" xmlns="http://www.w3.org/2000/svg">
<path d="M9.42455 5.61467H10.7619C11.1166 5.61467 11.4568 5.75557 11.7076 6.00638C11.9584 6.25719 12.0993 6.59736 12.0993 6.95205V13.3715C12.0993 13.7262 11.9584 14.0664 11.7076 14.3172C11.4568 14.568 11.1166 14.7089 10.7619 14.7089H2.73762C2.38293 14.7089 2.04276 14.568 1.79195 14.3172C1.54114 14.0664 1.40024 13.7262 1.40024 13.3715V6.95205C1.40024 6.59736 1.54114 6.25719 1.79195 6.00638C2.04276 5.75557 2.38293 5.61467 2.73762 5.61467H4.07501" stroke="#9C9C9C" stroke-width="1.5" stroke-linecap="round" stroke-linejoin="round"/>
<path d="M9.42345 3.47495L6.74868 0.800179L4.07391 3.47495" stroke="#9C9C9C" stroke-width="1.5" stroke-linecap="round" stroke-linejoin="round"/>
<path d="M6.7518 9.92783V0.800179" stroke="#9C9C9C" stroke-width="1.5" stroke-linecap="round" stroke-linejoin="round"/>
</svg>
